PathFileType	4	(X/Y/Z)	./resultDataOpenSim/trcMotMarkerGrf/sub09/qtm-03-05.trc
DataRate	CameraRate	NumFrames	NumMarkers	Units	OrigDataRate	OrigDataStartFrame	OrigNumFrames
250.000000	250.000000	7	24	m	250.000000	408	466
Frame#	Time	L.Toe.Tip			R.Toe.Tip			L.Ankle.Lat			R.Ankle.Lat			L.Ankle.Med			R.Ankle.Med			L.Heel			R.Heel			L.Knee.Lat			R.Knee.Lat			L.Knee.Med			R.Knee.Med			L.Thigh.Upper			R.Thigh.Upper			L.ASIS			R.ASIS			V.Sacral			L.Acromium			R.Acromium			C7			L.Elbow			R.Elbow			L.Wrist.Lat			R.Wrist.Lat
		X1	Y1	Z1	X2	Y2	Z2	X3	Y3	Z3	X4	Y4	Z4	X5	Y5	Z5	X6	Y6	Z6	X7	Y7	Z7	X8	Y8	Z8	X9	Y9	Z9	X10	Y10	Z10	X11	Y11	Z11	X12	Y12	Z12	X13	Y13	Z13	X14	Y14	Z14	X15	Y15	Z15	X16	Y16	Z16	X17	Y17	Z17	X18	Y18	Z18	X19	Y19	Z19	X20	Y20	Z20	X21	Y21	Z21	X22	Y22	Z22	X23	Y23	Z23	X24	Y24	Z24

408	1.628	1.5612307	0.113193	0.01542348	0.98742351	0.038355817	0.11561546	1.409054	0.090569882	-0.016157257	0.83873982	0.066881833	0.1409605	1.4307998	0.11853506	0.076125555	0.86242551	0.10595734	0.052276356	1.3610147	0.031114108	0.034034974	0.77235809	0.05539203	0.086383975	1.291511	0.49057868	-0.052753748	1.0112074	0.49402198	0.2202619	1.294837	0.48437953	0.073287008	1.0017359	0.48891015	0.093133611	1.1154969	0.87266341	-0.088174765	1.0583087	0.89395985	0.27972803	1.1850537	0.96644143	-0.024683812	1.1676128	0.97793318	0.21651511	1.0080369	1.0170911	0.078235205	1.1385595	1.4224766	-0.09071765	1.128065	1.437022	0.24088413	1.0651582	1.4743208	0.075343474	0.97713126	1.0941359	-0.13434702	1.0161501	1.0819731	0.33257598	1.0549905	0.85205396	-0.19780545	1.2278133	0.90125844	0.31033117
409	1.632	1.5728503	0.11627681	0.01558044	0.98746423	0.038364826	0.11571428	1.4209488	0.091167572	-0.015830248	0.83906045	0.067708396	0.14130096	1.4423435	0.11925494	0.076391115	0.86293058	0.10672735	0.05262839	1.373943	0.030933848	0.034396311	0.772547	0.056738632	0.086775787	1.2965584	0.48892674	-0.052399437	1.0151595	0.49359032	0.22055117	1.299295	0.48243399	0.073915952	1.0056537	0.48848354	0.093339093	1.12175	0.87131066	-0.088258835	1.0628514	0.89321131	0.27787395	1.1912376	0.96534274	-0.024682616	1.1733447	0.97700467	0.21657633	1.0140165	1.0159064	0.077808679	1.1439557	1.4214707	-0.090862416	1.1333523	1.4361114	0.2407365	1.0704887	1.4732978	0.075121677	0.98270684	1.0931866	-0.13441809	1.0215571	1.0810195	0.33214715	1.0596328	0.85101319	-0.19837049	1.2330075	0.89981543	0.31063573
410	1.636	1.5838576	0.11911348	0.015776945	0.98750771	0.038378443	0.11581729	1.4322412	0.091743167	-0.015448846	0.83941324	0.06858789	0.14169735	1.453304	0.11999833	0.076707325	0.86347108	0.10754173	0.053011516	1.3862319	0.030747264	0.035011576	0.77275363	0.058157603	0.087219925	1.3016171	0.48735179	-0.052061187	1.0192902	0.49311751	0.22072285	1.3037395	0.48064038	0.074511797	1.0097163	0.48802639	0.093576798	1.1281157	0.86997613	-0.088374148	1.0675703	0.89243981	0.27629679	1.1973991	0.96425493	-0.024693934	1.1791071	0.97607844	0.21661244	1.0199913	1.0147213	0.077331981	1.1493745	1.4204609	-0.091016114	1.1385927	1.4351965	0.24059942	1.0758238	1.4722748	0.074900201	0.98831102	1.0921977	-0.13450933	1.026976	1.0800641	0.33169261	1.0643601	0.84995924	-0.19892137	1.238117	0.89841027	0.31091099
411	1.64	1.5942268	0.12165159	0.015997126	0.98755713	0.038396633	0.11592192	1.4428697	0.092231636	-0.014979412	0.83980063	0.069526686	0.14213865	1.4636935	0.12071227	0.077086908	0.86406011	0.10840553	0.053423364	1.3978318	0.030520475	0.035947621	0.77298584	0.059660789	0.087702095	1.3067114	0.48585044	-0.051788953	1.0235743	0.49259584	0.22083801	1.3082709	0.47904046	0.075027839	1.013933	0.48752775	0.093850228	1.1345723	0.86867378	-0.088501993	1.0728133	0.89158683	0.27564939	1.2035352	0.96317379	-0.024711636	1.1849194	0.97515417	0.21662896	1.0259627	1.0135423	0.076830765	1.1548149	1.4194524	-0.091180906	1.1438248	1.4343018	0.24046392	1.0811584	1.4712418	0.07468488	0.99395088	1.0911899	-0.13461844	1.0324031	1.0791109	0.33121714	1.0691714	0.84889114	-0.19945141	1.2431746	0.89698681	0.31117559
412	1.644	1.6039287	0.12383616	0.016223049	0.98761537	0.038420923	0.11602706	1.4527717	0.092564518	-0.014391341	0.8402285	0.070531366	0.14260293	1.4734892	0.1213506	0.077541894	0.86470202	0.10932525	0.053864724	1.4086404	0.030260503	0.03710021	0.77325708	0.061257044	0.088212568	1.3118831	0.48443012	-0.051602489	1.0279546	0.49202266	0.22093486	1.3129752	0.47765222	0.075442386	1.0182987	0.48698624	0.094112002	1.141101	0.86741135	-0.088623702	1.0785634	0.89065937	0.27585926	1.2096442	0.96209884	-0.024733595	1.1908226	0.974213	0.21662028	1.0319383	1.0123777	0.076328336	1.1602761	1.4184482	-0.091354941	1.1490717	1.4334444	0.24033616	1.0864844	1.4701907	0.074467621	0.99963335	1.0901772	-0.13474572	1.0378033	1.0781595	0.33071212	1.0740663	0.84781189	-0.19995532	1.2481884	0.89551605	0.31145407
413	1.648	1.6129247	0.12559846	0.016431109	0.98768536	0.038452342	0.11613027	1.4618928	0.092682119	-0.013662417	0.8407075	0.071607161	0.14307028	1.4826492	0.12186738	0.078083764	0.86539682	0.11030163	0.054333781	1.4185494	0.029978829	0.038309896	0.77358004	0.062949932	0.088742617	1.3171781	0.48311363	-0.051472105	1.0323283	0.49139979	0.22101986	1.3179348	0.47647393	0.075766367	1.0227962	0.48641448	0.094278392	1.1477038	0.86618254	-0.088729984	1.0845333	0.88971207	0.27633088	1.2157292	0.96102893	-0.024758087	1.1968605	0.97322944	0.21657511	1.037924	1.0112356	0.075833277	1.1657536	1.4174486	-0.091537841	1.1543404	1.4326205	0.24021407	1.0918022	1.4691267	0.074232735	1.0053591	1.0891598	-0.13488686	1.0430968	1.077191	0.33014119	1.0790466	0.84672652	-0.20043225	1.2531522	0.89400371	0.31175897
414	1.652	1.6211762	0.12684865	0.016604874	0.98777106	0.038489978	0.11622787	1.4701949	0.092536085	-0.012788977	0.84124587	0.072753203	0.14353411	1.4911408	0.12220985	0.078718699	0.86614498	0.11132795	0.054821104	1.4275017	0.02964716	0.039529552	0.77395927	0.064740613	0.089285949	1.322628	0.48192428	-0.051339059	1.0365652	0.49073468	0.22108862	1.3232478	0.47549701	0.076030668	1.0274196	0.48582082	0.09432368	1.1543866	0.86497387	-0.088826681	1.0904702	0.88879161	0.27656328	1.2217973	0.95995725	-0.024790869	1.203021	0.9722061	0.21649215	1.0439216	1.0101189	0.075346015	1.171241	1.4164537	-0.091728002	1.1596236	1.4317998	0.24008241	1.0971178	1.4680655	0.073973115	1.0111276	1.0881331	-0.135028	1.0482043	1.07618	0.32946384	1.0841177	0.84563843	-0.20088336	1.2580644	0.89247136	0.31208457
